# xmcd CD database file
#
# Track frame offsets:
#	150
#	18775
#	36835
#	62810
#	76012
#	102820
#	120297
#
# Disc length: 1885 seconds
#
# Revision: 0
# Processed by: cddbd v1.4PL0 Copyright (c) Steve Scherf et al.
# Submitted via: CDex 1.50beta9
#
DISCID=43075b07
DTITLE=Goro Oshima Sings with The Jazz Bohemians - The Look of Love
DYEAR=2003
DGENRE=Jazz
TTITLE0=The Look of Love
TTITLE1=Dream
TTITLE2=In Summer
TTITLE3=Everybody Wants to be a Cat
TTITLE4=Someone to Watch Over Me
TTITLE5=For Ceora
TTITLE6=Over The Rainbow
EXTD=YEAR: 2003
EXTT0=
EXTT1=
EXTT2=
EXTT3=
EXTT4=
EXTT5=
EXTT6=
PLAYORDER=
